<svg width="105" height="105" viewBox="0 0 105 105" fill="none" xmlns="http://www.w3.org/2000/svg">
<path d="M52.5 83.125C57.1413 83.125 61.5925 81.2813 64.8744 77.9994C68.1563 74.7175 70 70.2663 70 65.625C70 60.9837 68.1563 56.5325 64.8744 53.2506C61.5925 49.9687 57.1413 48.125 52.5 48.125C47.8587 48.125 43.4075 49.9687 40.1256 53.2506C36.8437 56.5325 35 60.9837 35 65.625C35 70.2663 36.8437 74.7175 40.1256 77.9994C43.4075 81.2813 47.8587 83.125 52.5 83.125Z" stroke="black" stroke-width="5" stroke-miterlimit="10" stroke-linecap="round" stroke-linejoin="round"/>
<path d="M53.5938 60.1562V64.225C53.5938 65.7563 52.8063 67.2 51.45 67.9875L48.125 70" stroke="black" stroke-width="5" stroke-miterlimit="10" stroke-linecap="round" stroke-linejoin="round"/>
<path d="M32.8126 33.5563V29.3125C32.8126 19.4688 40.7313 9.80002 50.5751 8.88127C53.3102 8.61254 56.0713 8.91945 58.6807 9.78224C61.2901 10.645 63.6899 12.0446 65.7257 13.8908C67.7615 15.7371 69.3882 17.9891 70.5012 20.502C71.6141 23.0149 72.1885 25.733 72.1876 28.4813V34.5188M39.3751 96.25H65.6251C83.2126 96.25 86.3626 89.2063 87.2813 80.6313L90.5626 54.3813C91.7438 43.7063 88.6813 35 70.0001 35H35.0001C16.3188 35 13.2563 43.7063 14.4376 54.3813L17.7188 80.6313C18.6376 89.2063 21.7876 96.25 39.3751 96.25Z" stroke="black" stroke-width="5" stroke-miterlimit="10" stroke-linecap="round" stroke-linejoin="round"/>
</svg>
