<svg width="105" height="105" viewBox="0 0 105 105" fill="none" xmlns="http://www.w3.org/2000/svg">
<path d="M94.6313 64.5312C94.6313 68.425 93.5814 72.1 91.6564 75.25C89.8127 78.3246 87.2028 80.8682 84.0817 82.632C80.9605 84.3958 77.4351 85.3194 73.8501 85.3125C69.7376 85.3125 65.8876 84.0875 62.6501 81.9437C59.9376 80.2812 57.7063 77.9625 56.0876 75.25C54.1626 72.1 53.0688 68.425 53.0688 64.5312C53.0688 53.0688 62.3876 43.75 73.8501 43.75C75.4251 43.75 76.9563 43.925 78.4001 44.275C83.0067 45.3005 87.1258 47.8667 90.0769 51.5496C93.028 55.2325 94.6346 59.8118 94.6313 64.5312Z" stroke="black" stroke-width="5" stroke-miterlimit="10" stroke-linecap="round" stroke-linejoin="round"/>
<path d="M65.7563 64.5312L70.8751 69.65L81.9438 59.4125" stroke="black" stroke-width="5" stroke-linecap="round" stroke-linejoin="round"/>
<path d="M90.5189 17.5875V27.3C90.5189 30.8437 88.2877 35.2625 86.1002 37.4937L78.4002 44.275C76.9097 43.9204 75.3823 43.7441 73.8502 43.75C62.3877 43.75 53.0689 53.0688 53.0689 64.5312C53.0689 68.425 54.1627 72.1 56.0877 75.25C57.7064 77.9625 59.9377 80.2812 62.6502 81.9437V83.4312C62.6502 86.1 60.9002 89.6438 58.6689 90.9563L52.5002 94.9375C46.7689 98.4813 38.8064 94.5 38.8064 87.4125V64.0063C38.8064 60.9 37.0127 56.9188 35.2627 54.7313L18.4627 37.0563C16.2752 34.825 14.4814 30.8437 14.4814 28.2187V18.025C14.4814 12.7312 18.4627 8.75 23.3189 8.75H81.6814C86.5377 8.75 90.5189 12.7312 90.5189 17.5875Z" stroke="black" stroke-width="5" stroke-miterlimit="10" stroke-linecap="round" stroke-linejoin="round"/>
</svg>
