<svg width="105" height="105" viewBox="0 0 105 105" fill="none" xmlns="http://www.w3.org/2000/svg">
<path d="M17.5875 26.1187C11.8398 33.7114 8.73589 42.9771 8.75005 52.5C8.75005 76.65 28.3501 96.25 52.5001 96.25C76.65 96.25 96.2501 76.65 96.2501 52.5C96.2501 28.35 76.65 8.75 52.5001 8.75" stroke="black" stroke-width="5" stroke-linecap="round" stroke-linejoin="round"/>
<path d="M21.875 52.5C21.875 69.4312 35.5688 83.125 52.5 83.125C69.4312 83.125 83.125 69.4312 83.125 52.5C83.125 35.5688 69.4312 21.875 52.5 21.875" stroke="black" stroke-width="5" stroke-linecap="round" stroke-linejoin="round"/>
<path d="M52.5 70C62.1688 70 70 62.1688 70 52.5C70 42.8312 62.1688 35 52.5 35" stroke="black" stroke-width="5" stroke-linecap="round" stroke-linejoin="round"/>
</svg>
