<svg width="105" height="105" viewBox="0 0 105 105" fill="none" xmlns="http://www.w3.org/2000/svg">
<path d="M52.5002 61.25H56.8752C61.6877 61.25 65.6252 57.3125 65.6252 52.5V8.75H26.2502C19.6877 8.75 13.9564 12.3813 10.9814 17.7188" stroke="black" stroke-width="5" stroke-linecap="round" stroke-linejoin="round"/>
<path d="M8.75 74.375C8.75 81.6375 14.6125 87.5 21.875 87.5H26.25C26.25 82.6875 30.1875 78.75 35 78.75C39.8125 78.75 43.75 82.6875 43.75 87.5H61.25C61.25 82.6875 65.1875 78.75 70 78.75C74.8125 78.75 78.75 82.6875 78.75 87.5H83.125C90.3875 87.5 96.25 81.6375 96.25 74.375V61.25H83.125C80.7187 61.25 78.75 59.2813 78.75 56.875V43.75C78.75 41.3437 80.7187 39.375 83.125 39.375H88.7688L81.2875 26.2938C80.5167 24.9551 79.4078 23.8424 78.0719 23.0669C76.7359 22.2914 75.2197 21.8804 73.675 21.875H65.625V52.5C65.625 57.3125 61.6875 61.25 56.875 61.25H52.5" stroke="black" stroke-width="5" stroke-linecap="round" stroke-linejoin="round"/>
<path d="M8.75 35H35M8.75 48.125H26.25M8.75 61.25H17.5M35 96.25C37.3206 96.25 39.5462 95.3281 41.1872 93.6872C42.8281 92.0462 43.75 89.8206 43.75 87.5C43.75 85.1794 42.8281 82.9538 41.1872 81.3128C39.5462 79.6719 37.3206 78.75 35 78.75C32.6794 78.75 30.4538 79.6719 28.8128 81.3128C27.1719 82.9538 26.25 85.1794 26.25 87.5C26.25 89.8206 27.1719 92.0462 28.8128 93.6872C30.4538 95.3281 32.6794 96.25 35 96.25ZM70 96.25C72.3206 96.25 74.5462 95.3281 76.1872 93.6872C77.8281 92.0462 78.75 89.8206 78.75 87.5C78.75 85.1794 77.8281 82.9538 76.1872 81.3128C74.5462 79.6719 72.3206 78.75 70 78.75C67.6794 78.75 65.4538 79.6719 63.8128 81.3128C62.1719 82.9538 61.25 85.1794 61.25 87.5C61.25 89.8206 62.1719 92.0462 63.8128 93.6872C65.4538 95.3281 67.6794 96.25 70 96.25ZM96.25 52.5V61.25H83.125C80.7187 61.25 78.75 59.2813 78.75 56.875V43.75C78.75 41.3437 80.7187 39.375 83.125 39.375H88.7688L96.25 52.5Z" stroke="black" stroke-width="5" stroke-linecap="round" stroke-linejoin="round"/>
</svg>
