<svg width="50" height="50" viewBox="0 0 50 50" fill="none" xmlns="http://www.w3.org/2000/svg">
<path d="M42.7084 19.7917C45.8334 19.7917 45.8334 20.8334 45.8334 22.9167V27.0834C45.8334 29.1667 45.8334 30.2084 42.7084 30.2084M13.2917 20.8334C13.9792 23.5626 13.9792 26.4376 13.2917 29.1667M20.5834 20.8334C21.2709 23.5626 21.2709 26.4376 20.5834 29.1667M27.8751 20.8334C28.5626 23.5626 28.5626 26.4376 27.8751 29.1667" stroke="white" stroke-width="1.5" stroke-linecap="round" stroke-linejoin="round"/>
<path d="M27.0834 39.5834H14.5834C6.25008 39.5834 4.16675 37.5001 4.16675 29.1667V20.8334C4.16675 12.5001 6.25008 10.4167 14.5834 10.4167H27.0834C35.4168 10.4167 37.5001 12.5001 37.5001 20.8334V29.1667C37.5001 37.5001 35.4168 39.5834 27.0834 39.5834Z" stroke="white" stroke-width="1.5" stroke-linecap="round" stroke-linejoin="round"/>
</svg>
