<svg width="90" height="90" viewBox="0 0 90 90" fill="none" xmlns="http://www.w3.org/2000/svg">
<path d="M33.75 82.5H56.25C75 82.5 82.5 75 82.5 56.25V33.75C82.5 15 75 7.5 56.25 7.5H33.75C15 7.5 7.5 15 7.5 33.75V56.25C7.5 75 15 82.5 33.75 82.5Z" stroke="black" stroke-width="5" stroke-linecap="round" stroke-linejoin="round"/>
<path d="M58.125 69.375C62.25 69.375 65.625 66 65.625 61.875V28.125C65.625 24 62.25 20.625 58.125 20.625C54 20.625 50.625 24 50.625 28.125V61.875C50.625 63.8641 51.4152 65.7718 52.8217 67.1783C54.2282 68.5848 56.1359 69.375 58.125 69.375ZM31.875 69.375C36 69.375 39.375 66 39.375 61.875V48.75C39.375 44.625 36 41.25 31.875 41.25C27.75 41.25 24.375 44.625 24.375 48.75V61.875C24.375 63.8641 25.1652 65.7718 26.5717 67.1783C27.9782 68.5848 29.8859 69.375 31.875 69.375Z" stroke="black" stroke-width="5" stroke-linecap="round" stroke-linejoin="round"/>
</svg>
